<svg width="100" height="101" viewBox="0 0 100 101" fill="none" xmlns="http://www.w3.org/2000/svg">
<rect y="0.380859" width="100" height="100" rx="32" fill="#F85E9F"/>
<path fill-rule="evenodd" clip-rule="evenodd" d="M69.5744 47.4589C69.3036 47.7221 68.9362 47.8723 68.5494 47.8723C67.118 47.8723 65.9574 48.9999 65.9574 50.3715C65.9574 51.7525 67.1044 52.8743 68.5222 52.8895C69.321 52.8969 70 53.4381 70 54.2141V59.0339C70 63.0907 66.615 66.3809 62.4372 66.3809H56.1316C55.4796 66.3809 54.9516 65.8679 54.9516 65.2347V61.1759C54.9516 60.3867 54.3134 59.7667 53.501 59.7667C52.708 59.7667 52.0502 60.3867 52.0502 61.1759V65.2347C52.0502 65.8679 51.5222 66.3809 50.8724 66.3809H37.5629C33.4043 66.3809 30 63.0925 30 59.0339V54.2141C30 53.4381 30.6789 52.8969 31.4778 52.8895C32.8975 52.8743 34.0426 51.7525 34.0426 50.3715C34.0426 49.0373 32.9207 48.0227 31.4507 48.0227C31.0638 48.0227 30.6963 47.8723 30.4255 47.6093C30.1547 47.3463 30 46.9893 30 46.6135V41.7467C30 37.6955 33.412 34.3809 37.5822 34.3809H50.8724C51.5222 34.3809 52.0502 34.8938 52.0502 35.5271V40.3374C52.0502 41.1078 52.708 41.7467 53.501 41.7467C54.3134 41.7467 54.9516 41.1078 54.9516 40.3374V35.5271C54.9516 34.8938 55.4796 34.3809 56.1316 34.3809H62.4372C66.615 34.3809 70 37.6692 70 41.7279V46.4631C70 46.8389 69.8452 47.1959 69.5744 47.4589ZM53.501 56.1213C54.3134 56.1213 54.9516 55.4825 54.9516 54.7121V47.1959C54.9516 46.4255 54.3134 45.7866 53.501 45.7866C52.708 45.7866 52.0502 46.4255 52.0502 47.1959V54.7121C52.0502 55.4825 52.708 56.1213 53.501 56.1213Z" fill="white"/>
</svg>
