<svg width="100" height="101" viewBox="0 0 100 101" fill="none" xmlns="http://www.w3.org/2000/svg">
<rect y="0.380859" width="100" height="100" rx="32" fill="#FF5722"/>
<path fill-rule="evenodd" clip-rule="evenodd" d="M33 47.0165C33 37.8166 40.6878 30.3809 49.9868 30.3809C59.3122 30.3809 67 37.8166 67 47.0165C67 51.6523 65.314 55.9561 62.539 59.6041C59.4776 63.6279 55.7044 67.1339 51.457 69.8857C50.485 70.5217 49.6078 70.5697 48.5408 69.8857C44.2695 67.1339 40.4962 63.6279 37.461 59.6041C34.684 55.9561 33 51.6523 33 47.0165ZM44.3885 47.5345C44.3885 50.6163 46.9034 53.0403 49.9868 53.0403C53.0724 53.0403 55.6116 50.6163 55.6116 47.5345C55.6116 44.4765 53.0724 41.9345 49.9868 41.9345C46.9034 41.9345 44.3885 44.4765 44.3885 47.5345Z" fill="white"/>
</svg>
