<svg width="100" height="101" viewBox="0 0 100 101" fill="none" xmlns="http://www.w3.org/2000/svg">
<rect y="0.380859" width="100" height="100" rx="32" fill="#FACD49"/>
<path fill-rule="evenodd" clip-rule="evenodd" d="M56.8218 29.9181L56.8238 31.4173C62.333 31.8491 65.9724 35.6032 65.9782 41.3604L66 58.2119C66.0078 64.4889 62.0644 68.3509 55.7436 68.3609L40.3038 68.3809C34.0224 68.3889 30.0296 64.4349 30.0217 58.1399L30 41.4863C29.9921 35.6912 33.5031 31.9471 39.0123 31.4413L39.0104 29.9421C39.0084 29.0625 39.66 28.4009 40.5289 28.4009C41.3977 28.3989 42.0494 29.0585 42.0513 29.9381L42.0533 31.3374L53.7828 31.3214L53.7808 29.9221C53.7788 29.0425 54.4304 28.3829 55.2994 28.3809C56.1484 28.3789 56.8198 29.0385 56.8218 29.9181ZM33.043 42.104L62.9392 42.064V41.3644C62.8544 37.0665 60.698 34.8116 56.8276 34.4758L56.8296 36.015C56.8296 36.8746 56.1602 37.5563 55.3112 37.5563C54.4424 37.5583 53.7886 36.8786 53.7886 36.019L53.7868 34.3999L42.0573 34.4158L42.0592 36.033C42.0592 36.8946 41.4096 37.5743 40.5407 37.5743C39.6719 37.5763 39.0183 36.8986 39.0183 36.037L39.0163 34.4978C35.1657 34.8836 33.0351 37.1465 33.041 41.4823L33.043 42.104ZM54.4798 51.1895V51.2115C54.4996 52.1311 55.25 52.8287 56.1602 52.8087C57.0488 52.7867 57.7578 52.0251 57.738 51.1055C57.6966 50.2259 56.9836 49.5083 56.097 49.5103C55.1888 49.5303 54.4778 50.2699 54.4798 51.1895ZM56.1108 60.1649C55.2026 60.1449 54.47 59.3873 54.468 58.4679C54.4482 57.5483 55.1768 56.7867 56.0852 56.7647H56.105C57.033 56.7647 57.7854 57.5223 57.7854 58.4619C57.7874 59.4013 57.037 60.1629 56.1108 60.1649ZM46.3442 51.2215C46.3838 52.1411 47.136 52.8587 48.0444 52.8187C48.933 52.7767 49.642 52.0171 49.6024 51.0975C49.5806 50.1979 48.85 49.4983 47.9614 49.5003C47.0532 49.5403 46.3422 50.3019 46.3442 51.2215ZM48.0524 60.0751C47.144 60.1151 46.3936 59.3973 46.3522 58.4779C46.3522 57.5583 47.061 56.7987 47.9694 56.7567C48.858 56.7547 49.5906 57.4543 49.6104 58.3519C49.6518 59.2735 48.941 60.0331 48.0524 60.0751ZM38.2087 51.2915C38.2482 52.2109 39.0005 52.9307 39.9088 52.8887C40.7974 52.8487 41.5063 52.0871 41.4649 51.1675C41.4451 50.2679 40.7145 49.5683 39.8239 49.5703C38.9156 49.6103 38.2067 50.3719 38.2087 51.2915ZM39.9167 60.0851C39.0084 60.1271 38.258 59.4073 38.2166 58.4879C38.2146 57.5683 38.9255 56.8067 39.8338 56.7667C40.7224 56.7647 41.455 57.4643 41.4747 58.3639C41.5162 59.2835 40.8073 60.0451 39.9167 60.0851Z" fill="white"/>
</svg>
